<svg width="250" height="60" viewBox="0 0 250 60" fill="none" xmlns="http://www.w3.org/2000/svg">
<path d="M24.5909 17.7273H21.7727L15.9545 21.5909V24.4545L21.6364 20.6818H21.7727V41H24.5909V17.7273ZM38.875 41.3182C44.0114 41.3182 46.9659 36.9659 46.9659 29.3636C46.9659 21.8182 43.9659 17.4091 38.875 17.4091C33.7841 17.4091 30.7841 21.8182 30.7841 29.3636C30.7841 36.9659 33.7386 41.3182 38.875 41.3182ZM38.875 38.8182C35.4886 38.8182 33.5114 35.4205 33.5114 29.3636C33.5114 23.3182 35.5114 19.8636 38.875 19.8636C42.2386 19.8636 44.2386 23.3182 44.2386 29.3636C44.2386 35.4205 42.2614 38.8182 38.875 38.8182ZM58.875 41.3182C64.0114 41.3182 66.9659 36.9659 66.9659 29.3636C66.9659 21.8182 63.9659 17.4091 58.875 17.4091C53.7841 17.4091 50.7841 21.8182 50.7841 29.3636C50.7841 36.9659 53.7386 41.3182 58.875 41.3182ZM58.875 38.8182C55.4886 38.8182 53.5114 35.4205 53.5114 29.3636C53.5114 23.3182 55.5114 19.8636 58.875 19.8636C62.2386 19.8636 64.2386 23.3182 64.2386 29.3636C64.2386 35.4205 62.2614 38.8182 58.875 38.8182ZM78.875 41.3182C84.0114 41.3182 86.9659 36.9659 86.9659 29.3636C86.9659 21.8182 83.9659 17.4091 78.875 17.4091C73.7841 17.4091 70.7841 21.8182 70.7841 29.3636C70.7841 36.9659 73.7386 41.3182 78.875 41.3182ZM78.875 38.8182C75.4886 38.8182 73.5114 35.4205 73.5114 29.3636C73.5114 23.3182 75.5114 19.8636 78.875 19.8636C82.2386 19.8636 84.2386 23.3182 84.2386 29.3636C84.2386 35.4205 82.2614 38.8182 78.875 38.8182ZM119.42 25C118.557 20.2273 114.739 17.4091 110.057 17.4091C104.102 17.4091 99.7841 22 99.7841 29.3636C99.7841 36.7273 104.102 41.3182 110.057 41.3182C114.739 41.3182 118.557 38.5 119.42 33.7273H116.602C115.92 36.9545 113.148 38.6818 110.057 38.6818C105.83 38.6818 102.511 35.4091 102.511 29.3636C102.511 23.3182 105.83 20.0455 110.057 20.0455C113.148 20.0455 115.92 21.7727 116.602 25H119.42ZM126.293 30.5C126.293 27.4545 128.236 25.7273 130.884 25.7273C133.406 25.7273 134.929 27.3182 134.929 30.0909V41H137.611V29.9091C137.611 25.4205 135.224 23.3182 131.656 23.3182C128.906 23.3182 127.338 24.4659 126.52 26.2727H126.293V17.7273H123.611V41H126.293V30.5ZM149.835 41.3636C153.381 41.3636 155.972 39.5909 156.79 36.9545L154.199 36.2273C153.517 38.0455 151.938 38.9545 149.835 38.9545C146.688 38.9545 144.517 36.9205 144.392 33.1818H157.062V32.0455C157.062 25.5455 153.199 23.3182 149.562 23.3182C144.835 23.3182 141.699 27.0455 141.699 32.4091C141.699 37.7727 144.79 41.3636 149.835 41.3636ZM144.392 30.8636C144.574 28.1477 146.494 25.7273 149.562 25.7273C152.472 25.7273 154.335 27.9091 154.335 30.8636H144.392ZM163.824 30.5C163.824 27.4545 165.71 25.7273 168.278 25.7273C170.767 25.7273 172.278 27.3523 172.278 30.0909V41H174.96V29.9091C174.96 25.4545 172.585 23.3182 169.051 23.3182C166.415 23.3182 164.778 24.5 163.96 26.2727H163.733V23.5455H161.142V41H163.824V30.5ZM186.906 47.9091C191.088 47.9091 194.452 46 194.452 41.5V23.5455H191.861V26.3182H191.588C190.997 25.4091 189.906 23.3182 186.497 23.3182C182.088 23.3182 179.043 26.8182 179.043 32.1818C179.043 37.6364 182.224 40.7273 186.452 40.7273C189.861 40.7273 190.952 38.7273 191.543 37.7727H191.77V41.3182C191.77 44.2273 189.724 45.5455 186.906 45.5455C183.736 45.5455 182.622 43.875 181.906 42.9091L179.77 44.4091C180.861 46.2386 183.009 47.9091 186.906 47.9091ZM186.815 38.3182C183.452 38.3182 181.724 35.7727 181.724 32.1364C181.724 28.5909 183.406 25.7273 186.815 25.7273C190.088 25.7273 191.815 28.3636 191.815 32.1364C191.815 36 190.043 38.3182 186.815 38.3182Z" fill="white"/>
</svg>
